# Blender v3.1.2 OBJ File: ''
# www.blender.org
mtllib MiniCircle.mtl
o Окружность_Окружность.004
v 0.000000 0.000000 0.000000
v 0.000000 0.000000 -1.000000
v -0.195090 0.000000 -0.980785
v -0.382683 0.000000 -0.923880
v -0.555570 0.000000 -0.831470
v -0.707107 0.000000 -0.707107
v -0.831470 0.000000 -0.555570
v -0.923880 0.000000 -0.382683
v -0.980785 0.000000 -0.195090
v -1.000000 0.000000 0.000000
v -0.980785 0.000000 0.195090
v -0.923880 0.000000 0.382683
v -0.831470 0.000000 0.555570
v -0.707107 0.000000 0.707107
v -0.555570 0.000000 0.831470
v -0.382683 0.000000 0.923880
v -0.195090 0.000000 0.980785
v 0.000000 0.000000 1.000000
v 0.000000 0.085040 0.000000
v 0.000000 0.085040 -1.000000
v -0.195090 0.085040 -0.980785
v -0.382683 0.085040 -0.923880
v -0.555570 0.085040 -0.831470
v -0.707107 0.085040 -0.707107
v -0.831470 0.085040 -0.555570
v -0.923880 0.085040 -0.382683
v -0.980785 0.085040 -0.195090
v -1.000000 0.085040 0.000000
v -0.980785 0.085040 0.195090
v -0.923880 0.085040 0.382683
v -0.831470 0.085040 0.555570
v -0.707107 0.085040 0.707107
v -0.555570 0.085040 0.831470
v -0.382683 0.085040 0.923880
v -0.195090 0.085040 0.980785
v 0.000000 0.085040 1.000000
vt 0.500000 0.500000
vt 0.402455 0.990393
vt 0.500000 1.000000
vt 0.308658 0.961940
vt 0.222215 0.915735
vt 0.146447 0.853553
vt 0.084265 0.777785
vt 0.038060 0.691342
vt 0.009607 0.597545
vt 0.000000 0.500000
vt 0.009607 0.402455
vt 0.038060 0.308658
vt 0.084265 0.222215
vt 0.146447 0.146447
vt 0.222215 0.084265
vt 0.308658 0.038060
vt 0.402455 0.009607
vt 0.500000 0.000000
vt 0.500000 0.500000
vt 0.500000 1.000000
vt 0.402455 0.990393
vt 0.308658 0.961940
vt 0.222215 0.915735
vt 0.146447 0.853553
vt 0.084265 0.777785
vt 0.038060 0.691342
vt 0.009607 0.597545
vt 0.000000 0.500000
vt 0.009607 0.402455
vt 0.038060 0.308658
vt 0.084265 0.222215
vt 0.146447 0.146447
vt 0.222215 0.084265
vt 0.308658 0.038060
vt 0.402455 0.009607
vt 0.500000 0.000000
vn 0.0000 -1.0000 0.0000
vn 0.0000 1.0000 0.0000
vn -0.0980 0.0000 -0.9952
vn 1.0000 0.0000 0.0000
vn -0.2903 0.0000 -0.9569
vn -0.4714 0.0000 -0.8819
vn -0.6344 0.0000 -0.7730
vn -0.7730 0.0000 -0.6344
vn -0.8819 0.0000 -0.4714
vn -0.9569 0.0000 -0.2903
vn -0.9952 0.0000 -0.0980
vn -0.9952 0.0000 0.0980
vn -0.9569 0.0000 0.2903
vn -0.8819 0.0000 0.4714
vn -0.7730 0.0000 0.6344
vn -0.6344 0.0000 0.7730
vn -0.4714 0.0000 0.8819
vn -0.2903 0.0000 0.9569
vn -0.0980 0.0000 0.9952
usemtl None
s off
f 1/1/1 3/2/1 2/3/1
f 1/1/1 4/4/1 3/2/1
f 1/1/1 5/5/1 4/4/1
f 1/1/1 6/6/1 5/5/1
f 1/1/1 7/7/1 6/6/1
f 1/1/1 8/8/1 7/7/1
f 1/1/1 9/9/1 8/8/1
f 1/1/1 10/10/1 9/9/1
f 1/1/1 11/11/1 10/10/1
f 1/1/1 12/12/1 11/11/1
f 1/1/1 13/13/1 12/12/1
f 1/1/1 14/14/1 13/13/1
f 1/1/1 15/15/1 14/14/1
f 1/1/1 16/16/1 15/15/1
f 1/1/1 17/17/1 16/16/1
f 1/1/1 18/18/1 17/17/1
f 19/19/2 20/20/2 21/21/2
f 19/19/2 21/21/2 22/22/2
f 19/19/2 22/22/2 23/23/2
f 19/19/2 23/23/2 24/24/2
f 19/19/2 24/24/2 25/25/2
f 19/19/2 25/25/2 26/26/2
f 19/19/2 26/26/2 27/27/2
f 19/19/2 27/27/2 28/28/2
f 19/19/2 28/28/2 29/29/2
f 19/19/2 29/29/2 30/30/2
f 19/19/2 30/30/2 31/31/2
f 19/19/2 31/31/2 32/32/2
f 19/19/2 32/32/2 33/33/2
f 19/19/2 33/33/2 34/34/2
f 19/19/2 34/34/2 35/35/2
f 19/19/2 35/35/2 36/36/2
f 3/2/3 21/21/3 20/20/3 2/3/3
f 2/3/4 20/20/4 19/19/4 1/1/4
f 4/4/5 22/22/5 21/21/5 3/2/5
f 5/5/6 23/23/6 22/22/6 4/4/6
f 6/6/7 24/24/7 23/23/7 5/5/7
f 7/7/8 25/25/8 24/24/8 6/6/8
f 8/8/9 26/26/9 25/25/9 7/7/9
f 9/9/10 27/27/10 26/26/10 8/8/10
f 10/10/11 28/28/11 27/27/11 9/9/11
f 11/11/12 29/29/12 28/28/12 10/10/12
f 12/12/13 30/30/13 29/29/13 11/11/13
f 13/13/14 31/31/14 30/30/14 12/12/14
f 14/14/15 32/32/15 31/31/15 13/13/15
f 15/15/16 33/33/16 32/32/16 14/14/16
f 16/16/17 34/34/17 33/33/17 15/15/17
f 17/17/18 35/35/18 34/34/18 16/16/18
f 18/18/19 36/36/19 35/35/19 17/17/19
f 1/1/4 19/19/4 36/36/4 18/18/4
